<?xml version="1.0" standalone="no"?>
<!DOCTYPE svg PUBLIC "-//W3C//DTD SVG 20010904//EN"
 "http://www.w3.org/TR/2001/REC-SVG-20010904/DTD/svg10.dtd">
<svg version="1.0" xmlns="http://www.w3.org/2000/svg"
 width="512.000000pt" height="512.000000pt" viewBox="0 0 512.000000 512.000000"
 preserveAspectRatio="xMidYMid meet">
<metadata>
Created by potrace 1.11, written by Peter Selinger 2001-2013
</metadata>
<g transform="translate(0.000000,512.000000) scale(0.100000,-0.100000)"
fill="#000000" stroke="none">
<path d="M1599 4887 c-103 -19 -203 -98 -245 -193 -26 -60 -32 -87 -33 -160
l-1 -52 -62 13 c-35 7 -79 16 -98 19 -19 3 -71 12 -115 21 -127 25 -195 21
-270 -13 -141 -67 -183 -141 -229 -412 -5 -32 -17 -99 -23 -125 -4 -21 -39
-209 -48 -260 -3 -16 -15 -77 -26 -135 -11 -58 -29 -152 -39 -210 -10 -58 -31
-168 -45 -245 -15 -77 -29 -151 -31 -165 -3 -14 -13 -70 -24 -125 -11 -55 -22
-118 -26 -140 -3 -22 -19 -110 -35 -195 -16 -85 -32 -170 -35 -189 -3 -18 -8
-43 -10 -55 -3 -11 -18 -95 -35 -186 -16 -91 -34 -185 -39 -210 -12 -53 -19
-93 -25 -137 -3 -18 -9 -52 -14 -75 -6 -24 -13 -59 -16 -78 -3 -19 -22 -120
-41 -225 -40 -213 -40 -273 -1 -359 29 -62 95 -130 157 -161 43 -21 65 -28
135 -40 28 -5 46 -8 105 -20 14 -2 39 -7 55 -10 17 -3 41 -7 55 -10 105 -21
128 -25 150 -29 14 -2 52 -9 85 -15 33 -6 74 -14 90 -16 17 -3 53 -10 80 -15
70 -14 92 -19 155 -30 30 -6 66 -12 80 -15 14 -3 50 -9 80 -15 30 -6 66 -12
80 -15 14 -3 86 -16 160 -30 74 -14 146 -27 160 -30 14 -3 50 -9 80 -15 30 -6
66 -12 80 -15 23 -4 84 -16 165 -31 17 -3 111 -20 210 -39 99 -19 194 -36 210
-39 17 -3 41 -8 55 -10 61 -12 348 -66 375 -71 17 -2 80 -14 140 -26 61 -11
119 -22 130 -24 11 -2 71 -13 133 -25 139 -27 184 -29 242 -15 116 30 208 112
243 216 13 37 85 405 112 569 3 19 8 42 10 51 5 13 58 15 468 14 254 0 487 3
517 8 82 12 175 69 222 137 71 101 66 -24 67 1755 1 1766 5 1658 -58 1757 -36
56 -107 111 -176 135 -47 16 -159 17 -1646 18 -878 0 -1616 -4 -1640 -8z"/>
</g>
</svg>
